<svg width="540" height="150" viewBox="0 0 540 150" fill="none" xmlns="http://www.w3.org/2000/svg">
<g filter="url(#filter0_d_7_992)">
<path d="M103.016 29.5703V122.114H94.184C92.8187 122.114 91.6667 121.901 90.728 121.474C89.832 121.005 88.9573 120.237 88.104 119.17L39.784 57.4743C40.04 60.2903 40.168 62.893 40.168 65.2823V122.114H25V29.5703H34.024C34.7493 29.5703 35.368 29.613 35.88 29.6983C36.4347 29.741 36.904 29.869 37.288 30.0823C37.7147 30.253 38.12 30.5303 38.504 30.9143C38.888 31.2556 39.3147 31.725 39.784 32.3223L88.296 94.2743C88.168 92.781 88.0613 91.309 87.976 89.8583C87.8907 88.4076 87.848 87.0636 87.848 85.8263V29.5703H103.016Z" fill="white"/>
<path fill-rule="evenodd" clip-rule="evenodd" d="M34.0239 29.5703H41.0239C41.7493 29.5703 42.3679 29.613 42.8799 29.6983C43.4346 29.741 43.9039 29.869 44.2879 30.0823C44.7146 30.253 45.1199 30.5303 45.5039 30.9143C45.8879 31.2556 46.3146 31.725 46.7839 32.3223L87.8479 84.7629V85.8263C87.8479 87.0636 87.8906 88.4076 87.9759 89.8583C88.0613 91.309 88.1679 92.781 88.2959 94.2743L39.7839 32.3223C39.3146 31.725 38.8879 31.2556 38.5039 30.9143C38.1199 30.5303 37.7146 30.253 37.2879 30.0823C36.9039 29.869 36.4346 29.741 35.8799 29.6983C35.3679 29.613 34.7493 29.5703 34.0239 29.5703Z" fill="#FFB862" fill-opacity="0.99"/>
<path d="M247.62 39.5238C249.299 41.1746 251.307 42 253.646 42C255.985 42 257.978 41.1746 259.627 39.5238C261.306 37.8413 262.146 35.8413 262.146 33.5238C262.146 31.1746 261.306 29.1746 259.627 27.5238C257.978 25.8413 255.985 25 253.646 25C251.307 25 249.299 25.8413 247.62 27.5238C245.971 29.1746 245.146 31.1746 245.146 33.5238C245.146 35.8413 245.971 37.8413 247.62 39.5238Z" fill="#FFB862" fill-opacity="0.99"/>
<path d="M354.67 40.6381C356.349 42.2889 358.357 43.1143 360.696 43.1143C363.035 43.1143 365.028 42.2889 366.678 40.6381C368.357 38.9556 369.196 36.9556 369.196 34.6381C369.196 32.2889 368.357 30.2889 366.678 28.6381C365.028 26.9556 363.035 26.1143 360.696 26.1143C358.357 26.1143 356.349 26.9556 354.67 28.6381C353.021 30.2889 352.196 32.2889 352.196 34.6381C352.196 36.9556 353.021 38.9556 354.67 40.6381Z" fill="#FFB862" fill-opacity="0.99"/>
<path fill-rule="evenodd" clip-rule="evenodd" d="M144.15 124.66C139.726 124.66 135.726 123.842 132.15 122.205C128.575 120.539 125.741 118.129 123.65 114.978C121.59 111.826 120.56 107.963 120.56 103.387C120.56 99.4476 121.317 96.2052 122.832 93.6597C124.347 91.1143 126.393 89.0991 128.969 87.6143C131.544 86.1294 134.423 85.0082 137.605 84.2507C140.787 83.4931 144.029 82.9173 147.332 82.5234C151.514 82.0385 154.908 81.6446 157.514 81.3416C160.12 81.0082 162.014 80.4779 163.196 79.7507C164.378 79.0234 164.969 77.8416 164.969 76.2052V75.887C164.969 71.9173 163.847 68.8416 161.605 66.6597C159.393 64.4779 156.09 63.387 151.696 63.387C147.12 63.387 143.514 64.4022 140.878 66.4325C138.272 68.4325 136.469 70.6597 135.469 73.1143L122.696 70.2052C124.211 65.9628 126.423 62.5385 129.332 59.9325C132.272 57.2961 135.65 55.387 139.469 54.2052C143.287 52.9931 147.302 52.387 151.514 52.387C154.302 52.387 157.257 52.7204 160.378 53.387C163.529 54.0234 166.469 55.2052 169.196 56.9325C171.954 58.6597 174.211 61.1294 175.969 64.3416C177.726 67.5234 178.605 71.6597 178.605 76.7507V123.114H165.332V113.569H164.787C163.908 115.326 162.59 117.054 160.832 118.751C159.075 120.448 156.817 121.857 154.06 122.978C151.302 124.099 147.999 124.66 144.15 124.66ZM147.105 113.751C150.863 113.751 154.075 113.008 156.741 111.523C159.438 110.039 161.484 108.099 162.878 105.705C164.302 103.281 165.014 100.69 165.014 97.9325V88.9325C164.529 89.4173 163.59 89.8719 162.196 90.2961C160.832 90.69 159.272 91.0385 157.514 91.3416C155.757 91.6143 154.044 91.8719 152.378 92.1143C150.711 92.3264 149.317 92.5082 148.196 92.6597C145.56 92.9931 143.15 93.5537 140.969 94.3416C138.817 95.1294 137.09 96.2658 135.787 97.7506C134.514 99.2052 133.878 101.145 133.878 103.569C133.878 106.932 135.12 109.478 137.605 111.205C140.09 112.902 143.257 113.751 147.105 113.751ZM230.578 53.2961V64.2052H216.26V102.614C216.26 105.251 216.654 107.235 217.442 108.569C218.23 109.872 219.245 110.766 220.487 111.251C221.76 111.705 223.139 111.932 224.624 111.932C225.715 111.932 226.669 111.857 227.487 111.705C228.305 111.554 228.942 111.432 229.396 111.342L231.851 122.569C231.063 122.872 229.942 123.175 228.487 123.478C227.033 123.811 225.215 123.993 223.033 124.023C219.457 124.084 216.124 123.448 213.033 122.114C209.942 120.781 207.442 118.72 205.533 115.932C203.624 113.145 202.669 109.645 202.669 105.432V64.2052H192.442V53.2961H202.669V36.5688H216.26V53.2961H230.578ZM246.892 123.114V53.2961H260.483V123.114H246.892ZM339.775 53.2961L314.456 123.114H299.911L274.547 53.2961H289.138L306.82 107.023H307.547L325.184 53.2961H339.775ZM353.827 123.114V53.2961H367.418V123.114H353.827ZM439.3 70.3416L426.982 72.5234C426.467 70.9476 425.649 69.4476 424.528 68.0234C423.437 66.5991 421.952 65.4325 420.073 64.5234C418.194 63.6143 415.846 63.1597 413.028 63.1597C409.179 63.1597 405.967 64.0234 403.391 65.7506C400.816 67.4476 399.528 69.6446 399.528 72.3416C399.528 74.6749 400.391 76.5537 402.119 77.9779C403.846 79.4022 406.634 80.5688 410.482 81.4779L421.573 84.0234C427.997 85.5082 432.785 87.7961 435.937 90.887C439.088 93.9779 440.664 97.9931 440.664 102.932C440.664 107.114 439.452 110.842 437.028 114.114C434.634 117.357 431.285 119.902 426.982 121.751C422.71 123.599 417.755 124.523 412.119 124.523C404.3 124.523 397.922 122.857 392.982 119.523C388.043 116.16 385.013 111.387 383.891 105.205L397.028 103.205C397.846 106.629 399.528 109.22 402.073 110.978C404.619 112.705 407.937 113.569 412.028 113.569C416.482 113.569 420.043 112.645 422.71 110.796C425.376 108.917 426.71 106.629 426.71 103.932C426.71 101.751 425.891 99.9173 424.255 98.4325C422.649 96.9476 420.179 95.8264 416.846 95.0688L405.028 92.4779C398.513 90.9931 393.694 88.6294 390.573 85.387C387.482 82.1446 385.937 78.0385 385.937 73.0688C385.937 68.9476 387.088 65.3416 389.391 62.2506C391.694 59.1597 394.876 56.7507 398.937 55.0234C402.997 53.2658 407.649 52.387 412.891 52.387C420.437 52.387 426.376 54.0234 430.71 57.2961C435.043 60.5385 437.907 64.887 439.3 70.3416ZM470.478 81.6597V123.114H456.887V30.0234H470.296V64.6597H471.16C472.796 60.9022 475.296 57.9173 478.66 55.7052C482.024 53.4931 486.418 52.387 491.842 52.387C496.63 52.387 500.812 53.3719 504.387 55.3416C507.993 57.3113 510.781 60.2506 512.751 64.1597C514.751 68.0385 515.751 72.887 515.751 78.7052V123.114H502.16V80.3416C502.16 75.2203 500.842 71.2506 498.205 68.4325C495.569 65.584 491.902 64.1597 487.205 64.1597C483.993 64.1597 481.115 64.8416 478.569 66.2052C476.054 67.5688 474.069 69.5688 472.615 72.2052C471.19 74.8113 470.478 77.9628 470.478 81.6597Z" fill="white"/>
</g>
<defs>
<filter id="filter0_d_7_992" x="-4" y="0" width="548" height="158" filterUnits="userSpaceOnUse" color-interpolation-filters="sRGB">
<feFlood flood-opacity="0" result="BackgroundImageFix"/>
<feColorMatrix in="SourceAlpha" type="matrix" values="0 0 0 0 0 0 0 0 0 0 0 0 0 0 0 0 0 0 127 0" result="hardAlpha"/>
<feOffset dy="4"/>
<feGaussianBlur stdDeviation="2"/>
<feComposite in2="hardAlpha" operator="out"/>
<feColorMatrix type="matrix" values="0 0 0 0 0 0 0 0 0 0 0 0 0 0 0 0 0 0 0.25 0"/>
<feBlend mode="normal" in2="BackgroundImageFix" result="effect1_dropShadow_7_992"/>
<feBlend mode="normal" in="SourceGraphic" in2="effect1_dropShadow_7_992" result="shape"/>
</filter>
</defs>
</svg>
